<svg fill="#22D3EE" xmlns="http://www.w3.org/2000/svg" xmlns:svgjs="http://svgjs.com/svgjs" xmlns:xlink="http://www.w3.org/1999/xlink" width="288" height="288"><svg xmlns="http://www.w3.org/2000/svg" width="288" height="288" viewBox="0 0 24 24"><path d="m14.714 8.669-2.4 2.235-2.228-4.496 1.151-2.585c.291-.516.767-.522 1.058 0l2.419 4.846z" fill="#22D3EE" class="colorFFA000 svgShape"/><path fill="transparent" d="m12.314 10.903-8.979 8.351 6.751-12.846 2.228 4.495z" class="colorF57F17 svgShape"/><path fill="#22D3EE" d="M17.346 5.251c.43-.41.873-.271.985.31l2.334 13.58-7.742 4.648c-.272.152-.992.211-.992.211s-.655-.08-.906-.218l-7.689-4.528 14.01-14.003z" class="colorFFCA28 svgShape"/><path d="m10.086 6.408-6.75 12.846L6.344.477c.113-.582.443-.641.74-.126l3.002 6.057z" class="colorFFA000 svgShape"/></svg></svg>